<mxfile host="app.diagrams.net" modified="2022-04-24T19:00:16.787Z" agent="5.0 (Windows NT 10.0; Win64; x64) AppleWebKit/537.36 (KHTML, like Gecko) Chrome/100.0.4896.127 Safari/537.36" etag="eW1LMvV-20lReGJWFfqc" version="17.4.6" type="github">
  <diagram id="FeiwYfr4Wlo4jRZ_Yl8j" name="Page-1">
    <mxGraphModel dx="782" dy="436" grid="1" gridSize="10" guides="1" tooltips="1" connect="1" arrows="1" fold="1" page="1" pageScale="1" pageWidth="850" pageHeight="1100" math="0" shadow="0">
      <root>
        <mxCell id="0" />
        <mxCell id="1" parent="0" />
        <mxCell id="JngZ-TWqMBHg95M7geXb-1" value="&lt;b&gt;&lt;u&gt;&lt;font style=&quot;font-size: 18px&quot;&gt;A Traffic Light With Sensors&lt;/font&gt;&lt;/u&gt;&lt;/b&gt;" style="text;html=1;align=center;verticalAlign=middle;resizable=0;points=[];autosize=1;strokeColor=none;fillColor=none;" parent="1" vertex="1">
          <mxGeometry x="270" y="60" width="260" height="20" as="geometry" />
        </mxCell>
        <mxCell id="JngZ-TWqMBHg95M7geXb-2" value="&lt;font style=&quot;font-size: 10px&quot;&gt;north and south is green&lt;br&gt;east and west is red&lt;br&gt;&lt;/font&gt;" style="ellipse;whiteSpace=wrap;html=1;fontSize=18;" parent="1" vertex="1">
          <mxGeometry x="60" y="330" width="120" height="80" as="geometry" />
        </mxCell>
        <mxCell id="JngZ-TWqMBHg95M7geXb-12" style="edgeStyle=orthogonalEdgeStyle;rounded=0;orthogonalLoop=1;jettySize=auto;html=1;entryX=0;entryY=0.5;entryDx=0;entryDy=0;fontSize=10;" parent="1" source="JngZ-TWqMBHg95M7geXb-3" target="JngZ-TWqMBHg95M7geXb-4" edge="1">
          <mxGeometry relative="1" as="geometry" />
        </mxCell>
        <mxCell id="JngZ-TWqMBHg95M7geXb-3" value="north and south is yellow&lt;br&gt;&lt;br&gt;east and west is red" style="ellipse;whiteSpace=wrap;html=1;fontSize=10;" parent="1" vertex="1">
          <mxGeometry x="220" y="230" width="120" height="80" as="geometry" />
        </mxCell>
        <mxCell id="JngZ-TWqMBHg95M7geXb-4" value="north and south is red&lt;br&gt;&lt;br&gt;east and west is red" style="ellipse;whiteSpace=wrap;html=1;fontSize=10;" parent="1" vertex="1">
          <mxGeometry x="430" y="230" width="120" height="80" as="geometry" />
        </mxCell>
        <mxCell id="JngZ-TWqMBHg95M7geXb-5" value="north and south is red&lt;br&gt;&lt;br&gt;east and west is green" style="ellipse;whiteSpace=wrap;html=1;fontSize=10;" parent="1" vertex="1">
          <mxGeometry x="620" y="330" width="120" height="80" as="geometry" />
        </mxCell>
        <mxCell id="JngZ-TWqMBHg95M7geXb-6" value="north and south is red&lt;br&gt;&lt;br&gt;east and west is red" style="ellipse;whiteSpace=wrap;html=1;fontSize=10;" parent="1" vertex="1">
          <mxGeometry x="220" y="440" width="120" height="80" as="geometry" />
        </mxCell>
        <mxCell id="JngZ-TWqMBHg95M7geXb-13" style="edgeStyle=orthogonalEdgeStyle;rounded=0;orthogonalLoop=1;jettySize=auto;html=1;entryX=1;entryY=0.5;entryDx=0;entryDy=0;fontSize=10;" parent="1" source="JngZ-TWqMBHg95M7geXb-7" target="JngZ-TWqMBHg95M7geXb-6" edge="1">
          <mxGeometry relative="1" as="geometry" />
        </mxCell>
        <mxCell id="JngZ-TWqMBHg95M7geXb-7" value="north and south is red&lt;br&gt;&lt;br&gt;east and west is yellow" style="ellipse;whiteSpace=wrap;html=1;fontSize=10;" parent="1" vertex="1">
          <mxGeometry x="430" y="440" width="120" height="80" as="geometry" />
        </mxCell>
        <mxCell id="JngZ-TWqMBHg95M7geXb-10" value="" style="endArrow=classic;html=1;rounded=0;fontSize=10;exitX=0.5;exitY=0;exitDx=0;exitDy=0;" parent="1" source="JngZ-TWqMBHg95M7geXb-2" edge="1">
          <mxGeometry width="50" height="50" relative="1" as="geometry">
            <mxPoint x="390" y="330" as="sourcePoint" />
            <mxPoint x="120" y="270" as="targetPoint" />
          </mxGeometry>
        </mxCell>
        <mxCell id="JngZ-TWqMBHg95M7geXb-11" value="" style="endArrow=classic;html=1;rounded=0;fontSize=10;" parent="1" edge="1">
          <mxGeometry width="50" height="50" relative="1" as="geometry">
            <mxPoint x="120" y="270" as="sourcePoint" />
            <mxPoint x="220" y="270" as="targetPoint" />
          </mxGeometry>
        </mxCell>
        <mxCell id="JngZ-TWqMBHg95M7geXb-14" value="" style="endArrow=classic;html=1;rounded=0;fontSize=10;exitX=1;exitY=0.5;exitDx=0;exitDy=0;" parent="1" source="JngZ-TWqMBHg95M7geXb-4" edge="1">
          <mxGeometry width="50" height="50" relative="1" as="geometry">
            <mxPoint x="390" y="330" as="sourcePoint" />
            <mxPoint x="680" y="270" as="targetPoint" />
          </mxGeometry>
        </mxCell>
        <mxCell id="JngZ-TWqMBHg95M7geXb-15" value="" style="endArrow=classic;html=1;rounded=0;fontSize=10;entryX=0.5;entryY=0;entryDx=0;entryDy=0;" parent="1" target="JngZ-TWqMBHg95M7geXb-5" edge="1">
          <mxGeometry width="50" height="50" relative="1" as="geometry">
            <mxPoint x="680" y="270" as="sourcePoint" />
            <mxPoint x="440" y="280" as="targetPoint" />
          </mxGeometry>
        </mxCell>
        <mxCell id="JngZ-TWqMBHg95M7geXb-16" value="" style="endArrow=classic;html=1;rounded=0;fontSize=10;exitX=0.5;exitY=1;exitDx=0;exitDy=0;" parent="1" source="JngZ-TWqMBHg95M7geXb-5" edge="1">
          <mxGeometry width="50" height="50" relative="1" as="geometry">
            <mxPoint x="390" y="330" as="sourcePoint" />
            <mxPoint x="680" y="480" as="targetPoint" />
          </mxGeometry>
        </mxCell>
        <mxCell id="JngZ-TWqMBHg95M7geXb-17" value="" style="endArrow=classic;html=1;rounded=0;fontSize=10;entryX=1;entryY=0.5;entryDx=0;entryDy=0;" parent="1" target="JngZ-TWqMBHg95M7geXb-7" edge="1">
          <mxGeometry width="50" height="50" relative="1" as="geometry">
            <mxPoint x="680" y="480" as="sourcePoint" />
            <mxPoint x="440" y="280" as="targetPoint" />
          </mxGeometry>
        </mxCell>
        <mxCell id="JngZ-TWqMBHg95M7geXb-18" value="" style="endArrow=classic;html=1;rounded=0;fontSize=10;exitX=0;exitY=0.5;exitDx=0;exitDy=0;" parent="1" source="JngZ-TWqMBHg95M7geXb-6" edge="1">
          <mxGeometry width="50" height="50" relative="1" as="geometry">
            <mxPoint x="390" y="330" as="sourcePoint" />
            <mxPoint x="120" y="480" as="targetPoint" />
          </mxGeometry>
        </mxCell>
        <mxCell id="JngZ-TWqMBHg95M7geXb-19" value="" style="endArrow=classic;html=1;rounded=0;fontSize=10;entryX=0.5;entryY=1;entryDx=0;entryDy=0;" parent="1" target="JngZ-TWqMBHg95M7geXb-2" edge="1">
          <mxGeometry width="50" height="50" relative="1" as="geometry">
            <mxPoint x="120" y="480" as="sourcePoint" />
            <mxPoint x="440" y="280" as="targetPoint" />
          </mxGeometry>
        </mxCell>
        <mxCell id="JngZ-TWqMBHg95M7geXb-34" value="" style="endArrow=classic;html=1;rounded=0;fontSize=10;exitX=0.95;exitY=0.25;exitDx=0;exitDy=0;exitPerimeter=0;entryX=0;entryY=1;entryDx=0;entryDy=0;" parent="1" source="JngZ-TWqMBHg95M7geXb-2" target="JngZ-TWqMBHg95M7geXb-3" edge="1">
          <mxGeometry width="50" height="50" relative="1" as="geometry">
            <mxPoint x="390" y="430" as="sourcePoint" />
            <mxPoint x="440" y="380" as="targetPoint" />
          </mxGeometry>
        </mxCell>
        <mxCell id="JngZ-TWqMBHg95M7geXb-35" value="on east/west &lt;br&gt;pass" style="text;html=1;align=center;verticalAlign=middle;resizable=0;points=[];autosize=1;strokeColor=none;fillColor=none;fontSize=10;" parent="1" vertex="1">
          <mxGeometry x="145" y="295" width="70" height="30" as="geometry" />
        </mxCell>
        <mxCell id="JngZ-TWqMBHg95M7geXb-37" value="" style="endArrow=classic;html=1;rounded=0;fontSize=10;exitX=0.5;exitY=1;exitDx=0;exitDy=0;entryX=0.5;entryY=0;entryDx=0;entryDy=0;" parent="1" source="JngZ-TWqMBHg95M7geXb-3" target="JngZ-TWqMBHg95M7geXb-6" edge="1">
          <mxGeometry width="50" height="50" relative="1" as="geometry">
            <mxPoint x="390" y="420" as="sourcePoint" />
            <mxPoint x="440" y="370" as="targetPoint" />
          </mxGeometry>
        </mxCell>
        <mxCell id="JngZ-TWqMBHg95M7geXb-38" value="on north/south&lt;br&gt;pass" style="text;html=1;align=center;verticalAlign=middle;resizable=0;points=[];autosize=1;strokeColor=none;fillColor=none;fontSize=10;" parent="1" vertex="1">
          <mxGeometry x="200" y="370" width="80" height="30" as="geometry" />
        </mxCell>
        <mxCell id="JngZ-TWqMBHg95M7geXb-39" value="" style="endArrow=classic;html=1;rounded=0;fontSize=10;entryX=0;entryY=1;entryDx=0;entryDy=0;exitX=0.783;exitY=0.042;exitDx=0;exitDy=0;exitPerimeter=0;" parent="1" source="JngZ-TWqMBHg95M7geXb-6" target="JngZ-TWqMBHg95M7geXb-4" edge="1">
          <mxGeometry width="50" height="50" relative="1" as="geometry">
            <mxPoint x="310" y="450" as="sourcePoint" />
            <mxPoint x="440" y="370" as="targetPoint" />
          </mxGeometry>
        </mxCell>
        <mxCell id="JngZ-TWqMBHg95M7geXb-40" value="" style="endArrow=classic;html=1;rounded=0;fontSize=10;exitX=0.256;exitY=0.983;exitDx=0;exitDy=0;exitPerimeter=0;entryX=0.911;entryY=0.225;entryDx=0;entryDy=0;entryPerimeter=0;" parent="1" source="JngZ-TWqMBHg95M7geXb-4" target="JngZ-TWqMBHg95M7geXb-6" edge="1">
          <mxGeometry width="50" height="50" relative="1" as="geometry">
            <mxPoint x="390" y="420" as="sourcePoint" />
            <mxPoint x="440" y="370" as="targetPoint" />
          </mxGeometry>
        </mxCell>
        <mxCell id="JngZ-TWqMBHg95M7geXb-41" value="on east/west&lt;br&gt;pass" style="text;html=1;align=center;verticalAlign=middle;resizable=0;points=[];autosize=1;strokeColor=none;fillColor=none;fontSize=10;" parent="1" vertex="1">
          <mxGeometry x="320" y="340" width="70" height="30" as="geometry" />
        </mxCell>
        <mxCell id="JngZ-TWqMBHg95M7geXb-42" value="on north/south&lt;br&gt;pass" style="text;html=1;align=center;verticalAlign=middle;resizable=0;points=[];autosize=1;strokeColor=none;fillColor=none;fontSize=10;" parent="1" vertex="1">
          <mxGeometry x="380" y="390" width="80" height="30" as="geometry" />
        </mxCell>
        <mxCell id="JngZ-TWqMBHg95M7geXb-43" value="" style="endArrow=classic;html=1;rounded=0;fontSize=10;exitX=0.5;exitY=0;exitDx=0;exitDy=0;entryX=0.5;entryY=1;entryDx=0;entryDy=0;" parent="1" source="JngZ-TWqMBHg95M7geXb-7" target="JngZ-TWqMBHg95M7geXb-4" edge="1">
          <mxGeometry width="50" height="50" relative="1" as="geometry">
            <mxPoint x="390" y="400" as="sourcePoint" />
            <mxPoint x="440" y="350" as="targetPoint" />
          </mxGeometry>
        </mxCell>
        <mxCell id="JngZ-TWqMBHg95M7geXb-44" value="on east/west&lt;br&gt;pass" style="text;html=1;align=center;verticalAlign=middle;resizable=0;points=[];autosize=1;strokeColor=none;fillColor=none;fontSize=10;" parent="1" vertex="1">
          <mxGeometry x="490" y="370" width="70" height="30" as="geometry" />
        </mxCell>
        <mxCell id="JngZ-TWqMBHg95M7geXb-45" value="" style="endArrow=classic;html=1;rounded=0;fontSize=10;exitX=0;exitY=1;exitDx=0;exitDy=0;entryX=0.95;entryY=0.192;entryDx=0;entryDy=0;entryPerimeter=0;" parent="1" source="JngZ-TWqMBHg95M7geXb-5" target="JngZ-TWqMBHg95M7geXb-7" edge="1">
          <mxGeometry width="50" height="50" relative="1" as="geometry">
            <mxPoint x="390" y="400" as="sourcePoint" />
            <mxPoint x="440" y="350" as="targetPoint" />
          </mxGeometry>
        </mxCell>
        <mxCell id="JngZ-TWqMBHg95M7geXb-46" value="on north/south&lt;br&gt;pass" style="text;html=1;align=center;verticalAlign=middle;resizable=0;points=[];autosize=1;strokeColor=none;fillColor=none;fontSize=10;" parent="1" vertex="1">
          <mxGeometry x="582.5" y="420" width="80" height="30" as="geometry" />
        </mxCell>
        <mxCell id="oPYl_fr-YUcTT3jDTF2m-1" value="" style="endArrow=classic;html=1;rounded=0;" edge="1" parent="1">
          <mxGeometry width="50" height="50" relative="1" as="geometry">
            <mxPoint x="120" y="300" as="sourcePoint" />
            <mxPoint x="70" y="180" as="targetPoint" />
          </mxGeometry>
        </mxCell>
        <mxCell id="oPYl_fr-YUcTT3jDTF2m-2" value="go" style="ellipse;whiteSpace=wrap;html=1;aspect=fixed;" vertex="1" parent="1">
          <mxGeometry x="40" y="130" width="50" height="50" as="geometry" />
        </mxCell>
        <mxCell id="oPYl_fr-YUcTT3jDTF2m-3" value="&lt;font style=&quot;font-size: 8px&quot;&gt;if no car at any&lt;br&gt;other three&lt;br&gt;directions just&lt;br&gt;go immediately&lt;/font&gt;" style="text;html=1;align=center;verticalAlign=middle;resizable=0;points=[];autosize=1;strokeColor=none;fillColor=none;" vertex="1" parent="1">
          <mxGeometry x="15" y="202.5" width="70" height="70" as="geometry" />
        </mxCell>
        <mxCell id="oPYl_fr-YUcTT3jDTF2m-4" value="" style="endArrow=classic;html=1;rounded=0;" edge="1" parent="1">
          <mxGeometry width="50" height="50" relative="1" as="geometry">
            <mxPoint x="170" y="270" as="sourcePoint" />
            <mxPoint x="170" y="220" as="targetPoint" />
          </mxGeometry>
        </mxCell>
        <mxCell id="oPYl_fr-YUcTT3jDTF2m-5" value="&lt;font style=&quot;font-size: 10px&quot;&gt;wait for sensors&lt;/font&gt;" style="ellipse;whiteSpace=wrap;html=1;aspect=fixed;" vertex="1" parent="1">
          <mxGeometry x="140" y="160" width="60" height="60" as="geometry" />
        </mxCell>
        <mxCell id="oPYl_fr-YUcTT3jDTF2m-6" value="&lt;font style=&quot;font-size: 10px&quot;&gt;wait for sensors&lt;/font&gt;" style="ellipse;whiteSpace=wrap;html=1;aspect=fixed;" vertex="1" parent="1">
          <mxGeometry x="380" y="160" width="60" height="60" as="geometry" />
        </mxCell>
        <mxCell id="oPYl_fr-YUcTT3jDTF2m-7" value="&lt;font style=&quot;font-size: 10px&quot;&gt;wait for sensors&lt;/font&gt;" style="ellipse;whiteSpace=wrap;html=1;aspect=fixed;" vertex="1" parent="1">
          <mxGeometry x="620" y="160" width="60" height="60" as="geometry" />
        </mxCell>
        <mxCell id="oPYl_fr-YUcTT3jDTF2m-8" value="" style="endArrow=classic;html=1;rounded=0;fontSize=10;entryX=0.5;entryY=1;entryDx=0;entryDy=0;" edge="1" parent="1" target="oPYl_fr-YUcTT3jDTF2m-6">
          <mxGeometry width="50" height="50" relative="1" as="geometry">
            <mxPoint x="410" y="270" as="sourcePoint" />
            <mxPoint x="380" y="270" as="targetPoint" />
          </mxGeometry>
        </mxCell>
        <mxCell id="oPYl_fr-YUcTT3jDTF2m-9" value="" style="endArrow=classic;html=1;rounded=0;fontSize=10;entryX=0.5;entryY=1;entryDx=0;entryDy=0;" edge="1" parent="1" target="oPYl_fr-YUcTT3jDTF2m-7">
          <mxGeometry width="50" height="50" relative="1" as="geometry">
            <mxPoint x="650" y="270" as="sourcePoint" />
            <mxPoint x="380" y="270" as="targetPoint" />
          </mxGeometry>
        </mxCell>
        <mxCell id="oPYl_fr-YUcTT3jDTF2m-10" value="&lt;font style=&quot;font-size: 10px&quot;&gt;wait for sensors&lt;/font&gt;" style="ellipse;whiteSpace=wrap;html=1;aspect=fixed;" vertex="1" parent="1">
          <mxGeometry x="90" y="520" width="60" height="60" as="geometry" />
        </mxCell>
        <mxCell id="oPYl_fr-YUcTT3jDTF2m-11" value="&lt;font style=&quot;font-size: 10px&quot;&gt;wait for sensors&lt;/font&gt;" style="ellipse;whiteSpace=wrap;html=1;aspect=fixed;" vertex="1" parent="1">
          <mxGeometry x="390" y="520" width="60" height="60" as="geometry" />
        </mxCell>
        <mxCell id="oPYl_fr-YUcTT3jDTF2m-12" value="&lt;font style=&quot;font-size: 10px&quot;&gt;wait for sensors&lt;/font&gt;" style="ellipse;whiteSpace=wrap;html=1;aspect=fixed;" vertex="1" parent="1">
          <mxGeometry x="680" y="520" width="60" height="60" as="geometry" />
        </mxCell>
        <mxCell id="oPYl_fr-YUcTT3jDTF2m-13" value="" style="endArrow=classic;html=1;rounded=0;fontSize=10;entryX=0.5;entryY=0;entryDx=0;entryDy=0;" edge="1" parent="1" target="oPYl_fr-YUcTT3jDTF2m-10">
          <mxGeometry width="50" height="50" relative="1" as="geometry">
            <mxPoint x="140" y="480" as="sourcePoint" />
            <mxPoint x="380" y="370" as="targetPoint" />
          </mxGeometry>
        </mxCell>
        <mxCell id="oPYl_fr-YUcTT3jDTF2m-14" value="" style="endArrow=classic;html=1;rounded=0;fontSize=10;entryX=0.5;entryY=0;entryDx=0;entryDy=0;" edge="1" parent="1" target="oPYl_fr-YUcTT3jDTF2m-11">
          <mxGeometry width="50" height="50" relative="1" as="geometry">
            <mxPoint x="420" y="480" as="sourcePoint" />
            <mxPoint x="380" y="370" as="targetPoint" />
          </mxGeometry>
        </mxCell>
        <mxCell id="oPYl_fr-YUcTT3jDTF2m-15" value="" style="endArrow=classic;html=1;rounded=0;fontSize=10;entryX=0;entryY=0;entryDx=0;entryDy=0;" edge="1" parent="1" target="oPYl_fr-YUcTT3jDTF2m-12">
          <mxGeometry width="50" height="50" relative="1" as="geometry">
            <mxPoint x="670" y="480" as="sourcePoint" />
            <mxPoint x="380" y="370" as="targetPoint" />
          </mxGeometry>
        </mxCell>
        <mxCell id="oPYl_fr-YUcTT3jDTF2m-16" value="go" style="ellipse;whiteSpace=wrap;html=1;aspect=fixed;" vertex="1" parent="1">
          <mxGeometry x="330" y="120" width="50" height="50" as="geometry" />
        </mxCell>
        <mxCell id="oPYl_fr-YUcTT3jDTF2m-17" value="go" style="ellipse;whiteSpace=wrap;html=1;aspect=fixed;" vertex="1" parent="1">
          <mxGeometry x="530" y="120" width="50" height="50" as="geometry" />
        </mxCell>
        <mxCell id="oPYl_fr-YUcTT3jDTF2m-18" value="" style="endArrow=classic;html=1;rounded=0;fontSize=10;entryX=0.5;entryY=1;entryDx=0;entryDy=0;" edge="1" parent="1" target="oPYl_fr-YUcTT3jDTF2m-16">
          <mxGeometry width="50" height="50" relative="1" as="geometry">
            <mxPoint x="355" y="270" as="sourcePoint" />
            <mxPoint x="380" y="170" as="targetPoint" />
          </mxGeometry>
        </mxCell>
        <mxCell id="oPYl_fr-YUcTT3jDTF2m-19" value="" style="endArrow=classic;html=1;rounded=0;fontSize=10;entryX=0.5;entryY=1;entryDx=0;entryDy=0;" edge="1" parent="1" target="oPYl_fr-YUcTT3jDTF2m-17">
          <mxGeometry width="50" height="50" relative="1" as="geometry">
            <mxPoint x="555" y="270" as="sourcePoint" />
            <mxPoint x="380" y="170" as="targetPoint" />
          </mxGeometry>
        </mxCell>
        <mxCell id="oPYl_fr-YUcTT3jDTF2m-20" value="go" style="ellipse;whiteSpace=wrap;html=1;aspect=fixed;" vertex="1" parent="1">
          <mxGeometry x="230" y="550" width="50" height="50" as="geometry" />
        </mxCell>
        <mxCell id="oPYl_fr-YUcTT3jDTF2m-21" value="go" style="ellipse;whiteSpace=wrap;html=1;aspect=fixed;" vertex="1" parent="1">
          <mxGeometry x="300" y="550" width="50" height="50" as="geometry" />
        </mxCell>
        <mxCell id="oPYl_fr-YUcTT3jDTF2m-22" value="go" style="ellipse;whiteSpace=wrap;html=1;aspect=fixed;" vertex="1" parent="1">
          <mxGeometry x="500" y="550" width="50" height="50" as="geometry" />
        </mxCell>
        <mxCell id="oPYl_fr-YUcTT3jDTF2m-23" value="" style="endArrow=classic;html=1;rounded=0;fontSize=10;entryX=0;entryY=0;entryDx=0;entryDy=0;" edge="1" parent="1" target="oPYl_fr-YUcTT3jDTF2m-20">
          <mxGeometry width="50" height="50" relative="1" as="geometry">
            <mxPoint x="210" y="480" as="sourcePoint" />
            <mxPoint x="380" y="360" as="targetPoint" />
          </mxGeometry>
        </mxCell>
        <mxCell id="oPYl_fr-YUcTT3jDTF2m-24" value="" style="endArrow=classic;html=1;rounded=0;fontSize=10;entryX=0.5;entryY=0;entryDx=0;entryDy=0;" edge="1" parent="1" target="oPYl_fr-YUcTT3jDTF2m-21">
          <mxGeometry width="50" height="50" relative="1" as="geometry">
            <mxPoint x="360" y="480" as="sourcePoint" />
            <mxPoint x="380" y="360" as="targetPoint" />
          </mxGeometry>
        </mxCell>
        <mxCell id="oPYl_fr-YUcTT3jDTF2m-25" value="" style="endArrow=classic;html=1;rounded=0;fontSize=10;entryX=0.5;entryY=0;entryDx=0;entryDy=0;" edge="1" parent="1" target="oPYl_fr-YUcTT3jDTF2m-22">
          <mxGeometry width="50" height="50" relative="1" as="geometry">
            <mxPoint x="570" y="480" as="sourcePoint" />
            <mxPoint x="380" y="360" as="targetPoint" />
          </mxGeometry>
        </mxCell>
        <mxCell id="oPYl_fr-YUcTT3jDTF2m-26" value="&lt;font style=&quot;font-size: 8px&quot;&gt;&lt;span style=&quot;color: rgb(0 , 0 , 0) ; font-family: &amp;#34;helvetica&amp;#34; ; font-style: normal ; font-weight: 400 ; letter-spacing: normal ; text-align: center ; text-indent: 0px ; text-transform: none ; word-spacing: 0px ; background-color: rgb(248 , 249 , 250) ; display: inline ; float: none&quot;&gt;if no car at any&lt;/span&gt;&lt;br style=&quot;color: rgb(0 , 0 , 0) ; font-family: &amp;#34;helvetica&amp;#34; ; font-style: normal ; font-weight: 400 ; letter-spacing: normal ; text-align: center ; text-indent: 0px ; text-transform: none ; word-spacing: 0px ; background-color: rgb(248 , 249 , 250)&quot;&gt;&lt;span style=&quot;color: rgb(0 , 0 , 0) ; font-family: &amp;#34;helvetica&amp;#34; ; font-style: normal ; font-weight: 400 ; letter-spacing: normal ; text-align: center ; text-indent: 0px ; text-transform: none ; word-spacing: 0px ; background-color: rgb(248 , 249 , 250) ; display: inline ; float: none&quot;&gt;other three&lt;/span&gt;&lt;br style=&quot;color: rgb(0 , 0 , 0) ; font-family: &amp;#34;helvetica&amp;#34; ; font-style: normal ; font-weight: 400 ; letter-spacing: normal ; text-align: center ; text-indent: 0px ; text-transform: none ; word-spacing: 0px ; background-color: rgb(248 , 249 , 250)&quot;&gt;&lt;span style=&quot;color: rgb(0 , 0 , 0) ; font-family: &amp;#34;helvetica&amp;#34; ; font-style: normal ; font-weight: 400 ; letter-spacing: normal ; text-align: center ; text-indent: 0px ; text-transform: none ; word-spacing: 0px ; background-color: rgb(248 , 249 , 250) ; display: inline ; float: none&quot;&gt;directions just&lt;/span&gt;&lt;br style=&quot;color: rgb(0 , 0 , 0) ; font-family: &amp;#34;helvetica&amp;#34; ; font-style: normal ; font-weight: 400 ; letter-spacing: normal ; text-align: center ; text-indent: 0px ; text-transform: none ; word-spacing: 0px ; background-color: rgb(248 , 249 , 250)&quot;&gt;&lt;span style=&quot;color: rgb(0 , 0 , 0) ; font-family: &amp;#34;helvetica&amp;#34; ; font-style: normal ; font-weight: 400 ; letter-spacing: normal ; text-align: center ; text-indent: 0px ; text-transform: none ; word-spacing: 0px ; background-color: rgb(248 , 249 , 250) ; display: inline ; float: none&quot;&gt;go immediately&lt;/span&gt;&lt;/font&gt;" style="text;whiteSpace=wrap;html=1;fontSize=10;" vertex="1" parent="1">
          <mxGeometry x="290" y="170" width="60" height="60" as="geometry" />
        </mxCell>
        <mxCell id="oPYl_fr-YUcTT3jDTF2m-27" value="&lt;span style=&quot;font-size: 8px ; font-family: &amp;#34;helvetica&amp;#34; ; text-align: center&quot;&gt;if no car at any&lt;/span&gt;&lt;br style=&quot;font-size: 8px ; font-family: &amp;#34;helvetica&amp;#34; ; text-align: center&quot;&gt;&lt;span style=&quot;font-size: 8px ; font-family: &amp;#34;helvetica&amp;#34; ; text-align: center&quot;&gt;other three&lt;/span&gt;&lt;br style=&quot;font-size: 8px ; font-family: &amp;#34;helvetica&amp;#34; ; text-align: center&quot;&gt;&lt;span style=&quot;font-size: 8px ; font-family: &amp;#34;helvetica&amp;#34; ; text-align: center&quot;&gt;directions just&lt;/span&gt;&lt;br style=&quot;font-size: 8px ; font-family: &amp;#34;helvetica&amp;#34; ; text-align: center&quot;&gt;&lt;span style=&quot;font-size: 8px ; font-family: &amp;#34;helvetica&amp;#34; ; text-align: center&quot;&gt;go immediately&lt;/span&gt;" style="text;whiteSpace=wrap;html=1;fontSize=10;" vertex="1" parent="1">
          <mxGeometry x="560" y="190" width="60" height="60" as="geometry" />
        </mxCell>
        <mxCell id="oPYl_fr-YUcTT3jDTF2m-28" value="&lt;span style=&quot;color: rgb(0, 0, 0); font-size: 8px; font-style: normal; font-weight: 400; letter-spacing: normal; text-indent: 0px; text-transform: none; word-spacing: 0px; font-family: helvetica; text-align: center; background-color: rgb(248, 249, 250); display: inline; float: none;&quot;&gt;if no car at any&lt;/span&gt;&lt;br style=&quot;color: rgb(0, 0, 0); font-size: 8px; font-style: normal; font-weight: 400; letter-spacing: normal; text-indent: 0px; text-transform: none; word-spacing: 0px; font-family: helvetica; text-align: center; background-color: rgb(248, 249, 250);&quot;&gt;&lt;span style=&quot;color: rgb(0, 0, 0); font-size: 8px; font-style: normal; font-weight: 400; letter-spacing: normal; text-indent: 0px; text-transform: none; word-spacing: 0px; font-family: helvetica; text-align: center; background-color: rgb(248, 249, 250); display: inline; float: none;&quot;&gt;other three&lt;/span&gt;&lt;br style=&quot;color: rgb(0, 0, 0); font-size: 8px; font-style: normal; font-weight: 400; letter-spacing: normal; text-indent: 0px; text-transform: none; word-spacing: 0px; font-family: helvetica; text-align: center; background-color: rgb(248, 249, 250);&quot;&gt;&lt;span style=&quot;color: rgb(0, 0, 0); font-size: 8px; font-style: normal; font-weight: 400; letter-spacing: normal; text-indent: 0px; text-transform: none; word-spacing: 0px; font-family: helvetica; text-align: center; background-color: rgb(248, 249, 250); display: inline; float: none;&quot;&gt;directions just&lt;/span&gt;&lt;br style=&quot;color: rgb(0, 0, 0); font-size: 8px; font-style: normal; font-weight: 400; letter-spacing: normal; text-indent: 0px; text-transform: none; word-spacing: 0px; font-family: helvetica; text-align: center; background-color: rgb(248, 249, 250);&quot;&gt;&lt;span style=&quot;color: rgb(0, 0, 0); font-size: 8px; font-style: normal; font-weight: 400; letter-spacing: normal; text-indent: 0px; text-transform: none; word-spacing: 0px; font-family: helvetica; text-align: center; background-color: rgb(248, 249, 250); display: inline; float: none;&quot;&gt;go immediately&lt;/span&gt;" style="text;whiteSpace=wrap;html=1;fontSize=8;" vertex="1" parent="1">
          <mxGeometry x="550" y="500" width="80" height="60" as="geometry" />
        </mxCell>
        <mxCell id="oPYl_fr-YUcTT3jDTF2m-29" value="&lt;font style=&quot;font-size: 6px&quot;&gt;&lt;span style=&quot;color: rgb(0 , 0 , 0) ; font-style: normal ; font-weight: 400 ; letter-spacing: normal ; text-indent: 0px ; text-transform: none ; word-spacing: 0px ; font-family: &amp;#34;helvetica&amp;#34; ; text-align: center ; background-color: rgb(248 , 249 , 250) ; display: inline ; float: none&quot;&gt;if no car at any&lt;/span&gt;&lt;br style=&quot;color: rgb(0 , 0 , 0) ; font-style: normal ; font-weight: 400 ; letter-spacing: normal ; text-indent: 0px ; text-transform: none ; word-spacing: 0px ; font-family: &amp;#34;helvetica&amp;#34; ; text-align: center ; background-color: rgb(248 , 249 , 250)&quot;&gt;&lt;span style=&quot;color: rgb(0 , 0 , 0) ; font-style: normal ; font-weight: 400 ; letter-spacing: normal ; text-indent: 0px ; text-transform: none ; word-spacing: 0px ; font-family: &amp;#34;helvetica&amp;#34; ; text-align: center ; background-color: rgb(248 , 249 , 250) ; display: inline ; float: none&quot;&gt;other three&lt;/span&gt;&lt;br style=&quot;color: rgb(0 , 0 , 0) ; font-style: normal ; font-weight: 400 ; letter-spacing: normal ; text-indent: 0px ; text-transform: none ; word-spacing: 0px ; font-family: &amp;#34;helvetica&amp;#34; ; text-align: center ; background-color: rgb(248 , 249 , 250)&quot;&gt;&lt;span style=&quot;color: rgb(0 , 0 , 0) ; font-style: normal ; font-weight: 400 ; letter-spacing: normal ; text-indent: 0px ; text-transform: none ; word-spacing: 0px ; font-family: &amp;#34;helvetica&amp;#34; ; text-align: center ; background-color: rgb(248 , 249 , 250) ; display: inline ; float: none&quot;&gt;directions just&lt;/span&gt;&lt;br style=&quot;color: rgb(0 , 0 , 0) ; font-style: normal ; font-weight: 400 ; letter-spacing: normal ; text-indent: 0px ; text-transform: none ; word-spacing: 0px ; font-family: &amp;#34;helvetica&amp;#34; ; text-align: center ; background-color: rgb(248 , 249 , 250)&quot;&gt;&lt;span style=&quot;color: rgb(0 , 0 , 0) ; font-style: normal ; font-weight: 400 ; letter-spacing: normal ; text-indent: 0px ; text-transform: none ; word-spacing: 0px ; font-family: &amp;#34;helvetica&amp;#34; ; text-align: center ; background-color: rgb(248 , 249 , 250) ; display: inline ; float: none&quot;&gt;go immediately&lt;/span&gt;&lt;/font&gt;" style="text;whiteSpace=wrap;html=1;fontSize=8;" vertex="1" parent="1">
          <mxGeometry x="345" y="490" width="80" height="60" as="geometry" />
        </mxCell>
        <mxCell id="oPYl_fr-YUcTT3jDTF2m-30" value="&lt;span style=&quot;color: rgb(0, 0, 0); font-size: 8px; font-style: normal; font-weight: 400; letter-spacing: normal; text-indent: 0px; text-transform: none; word-spacing: 0px; font-family: helvetica; text-align: center; background-color: rgb(248, 249, 250); display: inline; float: none;&quot;&gt;if no car at any&lt;/span&gt;&lt;br style=&quot;color: rgb(0, 0, 0); font-size: 8px; font-style: normal; font-weight: 400; letter-spacing: normal; text-indent: 0px; text-transform: none; word-spacing: 0px; font-family: helvetica; text-align: center; background-color: rgb(248, 249, 250);&quot;&gt;&lt;span style=&quot;color: rgb(0, 0, 0); font-size: 8px; font-style: normal; font-weight: 400; letter-spacing: normal; text-indent: 0px; text-transform: none; word-spacing: 0px; font-family: helvetica; text-align: center; background-color: rgb(248, 249, 250); display: inline; float: none;&quot;&gt;other three&lt;/span&gt;&lt;br style=&quot;color: rgb(0, 0, 0); font-size: 8px; font-style: normal; font-weight: 400; letter-spacing: normal; text-indent: 0px; text-transform: none; word-spacing: 0px; font-family: helvetica; text-align: center; background-color: rgb(248, 249, 250);&quot;&gt;&lt;span style=&quot;color: rgb(0, 0, 0); font-size: 8px; font-style: normal; font-weight: 400; letter-spacing: normal; text-indent: 0px; text-transform: none; word-spacing: 0px; font-family: helvetica; text-align: center; background-color: rgb(248, 249, 250); display: inline; float: none;&quot;&gt;directions just&lt;/span&gt;&lt;br style=&quot;color: rgb(0, 0, 0); font-size: 8px; font-style: normal; font-weight: 400; letter-spacing: normal; text-indent: 0px; text-transform: none; word-spacing: 0px; font-family: helvetica; text-align: center; background-color: rgb(248, 249, 250);&quot;&gt;&lt;span style=&quot;color: rgb(0, 0, 0); font-size: 8px; font-style: normal; font-weight: 400; letter-spacing: normal; text-indent: 0px; text-transform: none; word-spacing: 0px; font-family: helvetica; text-align: center; background-color: rgb(248, 249, 250); display: inline; float: none;&quot;&gt;go immediately&lt;/span&gt;" style="text;whiteSpace=wrap;html=1;fontSize=6;" vertex="1" parent="1">
          <mxGeometry x="170" y="500" width="60" height="50" as="geometry" />
        </mxCell>
      </root>
    </mxGraphModel>
  </diagram>
</mxfile>
